<svg width="32" height="32" viewBox="0 0 32 32" fill="none" xmlns="http://www.w3.org/2000/svg">
<path d="M25.3983 11.621C17.1969 7.72925 8.98588 15.6568 0.784187 12.1674C0.412625 12.0093 0 12.2777 0 12.6814V27.8319C0 28.0744 0.138375 28.2971 0.3575 28.4011C8.55888 32.2934 16.7699 24.3652 24.9716 27.8546C25.3432 28.0127 25.7558 27.7444 25.7558 27.3406V12.1902C25.7559 11.9476 25.6174 11.7249 25.3983 11.621Z" fill="url(#paint0_linear_439_8741)"/>
<path d="M0 17.2559V27.8319C0 28.0744 0.138375 28.297 0.3575 28.401C8.55888 32.2934 16.7699 24.3652 24.9716 27.8546C25.3432 28.0127 25.7558 27.7444 25.7558 27.3405V17.2559H0Z" fill="url(#paint1_linear_439_8741)"/>
<path d="M25.3983 11.621C21.9405 9.98017 18.4809 10.4404 15.0211 11.2601V27.6855C18.3386 26.8994 21.6559 26.444 24.9717 27.8547C25.3433 28.0127 25.7559 27.7444 25.7559 27.3406V12.1902C25.7559 11.9476 25.6174 11.7249 25.3983 11.621Z" fill="url(#paint2_linear_439_8741)"/>
<path d="M23.9102 15.7132C23.3356 15.7701 22.7401 15.6057 22.2613 15.2063C21.5201 14.5869 21.2829 13.5876 21.5972 12.7296C21.6636 12.5479 21.5533 12.3489 21.3629 12.3179C15.7816 11.4108 10.1965 14.9583 4.61512 14.1673C4.44637 14.1435 4.295 14.2632 4.26975 14.432C4.19038 14.9726 3.91439 15.465 3.49462 15.8149C3.01587 16.2143 2.42031 16.3787 1.84569 16.3218C1.66687 16.3045 1.51256 16.4465 1.51256 16.6268V24.0042C1.51256 24.1845 1.66687 24.3265 1.84569 24.3092C2.42031 24.2523 3.01587 24.4167 3.49462 24.8161C4.23581 25.4355 4.47306 26.4348 4.15869 27.2928C4.09237 27.4745 4.20269 27.6735 4.393 27.7045C9.97437 28.6115 15.5594 25.0641 21.1408 25.855C21.3096 25.8788 21.4609 25.7592 21.4862 25.5904C21.5656 25.0497 21.8415 24.5574 22.2613 24.2075C22.7401 23.808 23.3356 23.6437 23.9102 23.7006C24.0891 23.7179 24.2434 23.5758 24.2434 23.3956V16.0181C24.2433 15.8379 24.089 15.6958 23.9102 15.7132ZM12.8779 25.1995C10.0126 25.1995 7.6895 22.8764 7.6895 20.0111C7.6895 17.1458 10.0126 14.8227 12.8779 14.8227C15.7432 14.8227 18.0664 17.1458 18.0664 20.0111C18.0664 22.8764 15.7432 25.1995 12.8779 25.1995Z" fill="url(#paint3_linear_439_8741)"/>
<path d="M24.9717 27.8545C25.3433 28.0126 25.7559 27.7443 25.7559 27.3405V22.4854H8.89744L6.4515 24.9313L10.3679 28.8477C15.2364 27.733 20.1057 25.7844 24.9717 27.8545Z" fill="url(#paint4_linear_439_8741)"/>
<path d="M3.31444 20.2638L6.70788 23.6572V20.2638H3.31444Z" fill="url(#paint5_linear_439_8741)"/>
<path d="M31.6424 8.25174C23.4411 4.35999 15.23 12.2875 7.02831 8.79817C6.65675 8.64011 6.24413 8.90842 6.24413 9.31224V24.4627C6.24413 24.7052 6.3825 24.9279 6.60163 25.0319C14.803 28.9242 23.0141 20.996 31.2157 24.4854C31.5873 24.6435 31.9999 24.3752 31.9999 23.9714V8.82092C32 8.57842 31.8616 8.35574 31.6424 8.25174Z" fill="url(#paint6_linear_439_8741)"/>
<path d="M6.24413 13.8866V24.4626C6.24413 24.7051 6.3825 24.9278 6.60163 25.0318C14.803 28.9242 23.0141 20.996 31.2157 24.4853C31.5873 24.6434 31.9999 24.3751 31.9999 23.9713V13.8866H6.24413Z" fill="url(#paint7_linear_439_8741)"/>
<path d="M31.6424 8.25172C28.1846 6.6109 24.7251 7.07109 21.2652 7.89084V24.3162C24.5828 23.5302 27.9 23.0747 31.2158 24.4854C31.5874 24.6435 32 24.3752 32 23.9713V8.8209C32 8.5784 31.8616 8.35572 31.6424 8.25172Z" fill="url(#paint8_linear_439_8741)"/>
<path d="M30.1544 12.3439C29.5798 12.4008 28.9842 12.2365 28.5054 11.837C27.7642 11.2176 27.527 10.2183 27.8414 9.36034C27.9077 9.17865 27.7974 8.97965 27.6071 8.94865C22.0257 8.04159 16.4407 11.589 10.8592 10.7981C10.6905 10.7743 10.5391 10.894 10.5139 11.0627C10.4345 11.6034 10.1585 12.0958 9.73875 12.4456C9.26 12.8451 8.66444 13.0095 8.08981 12.9525C7.911 12.9352 7.75669 13.0773 7.75669 13.2575V20.635C7.75669 20.8152 7.911 20.9573 8.08981 20.94C8.66444 20.883 9.26 21.0474 9.73875 21.4468C10.4799 22.0662 10.7172 23.0655 10.4028 23.9235C10.3365 24.1052 10.4468 24.3042 10.6371 24.3352C16.2185 25.2423 21.8035 21.6948 27.3849 22.4858C27.5537 22.5096 27.7051 22.3899 27.7303 22.2211C27.8097 21.6805 28.0856 21.1881 28.5054 20.8382C28.9841 20.4388 29.5797 20.2744 30.1543 20.3313C30.3331 20.3486 30.4874 20.2066 30.4874 20.0263V12.6489C30.4875 12.4686 30.3332 12.3266 30.1544 12.3439ZM19.1221 21.8303C16.2568 21.8303 13.9336 19.5072 13.9336 16.6419C13.9336 13.7766 16.2568 11.4535 19.1221 11.4535C21.9874 11.4535 24.3105 13.7766 24.3105 16.6419C24.3105 19.5072 21.9874 21.8303 19.1221 21.8303Z" fill="url(#paint9_linear_439_8741)"/>
<path d="M31.6424 8.25174C23.4411 4.35999 15.23 12.2875 7.02831 8.79817C6.65675 8.64011 6.24413 8.90842 6.24413 9.31224V24.4627C6.24413 24.7052 6.3825 24.9279 6.60163 25.0319C14.803 28.9242 23.0141 20.996 31.2157 24.4854C31.5873 24.6435 31.9999 24.3752 31.9999 23.9714V8.82092C32 8.57842 31.8616 8.35574 31.6424 8.25174Z" fill="url(#paint10_linear_439_8741)"/>
<path d="M31.6424 8.25174C23.4411 4.35999 15.23 12.2875 7.02831 8.79817C6.65675 8.64011 6.24413 8.90842 6.24413 9.31224V24.4627C6.24413 24.7052 6.3825 24.9279 6.60163 25.0319C14.803 28.9242 23.0141 20.996 31.2157 24.4854C31.5873 24.6435 31.9999 24.3752 31.9999 23.9714V8.82092C32 8.57842 31.8616 8.35574 31.6424 8.25174Z" fill="url(#paint11_linear_439_8741)"/>
<path d="M28.5204 3.59865C20.319 -0.293097 12.1079 7.63453 3.90625 4.14509C3.53469 3.98703 3.12206 4.25534 3.12206 4.65915V19.8096C3.12206 20.0521 3.26044 20.2748 3.47956 20.3788C11.6809 24.2712 19.892 16.343 28.0937 19.8323C28.4653 19.9904 28.8779 19.7221 28.8779 19.3183V4.16784C28.8779 3.92534 28.7395 3.70265 28.5204 3.59865Z" fill="url(#paint12_linear_439_8741)"/>
<path d="M3.12206 9.23364V19.8096C3.12206 20.0521 3.26044 20.2748 3.47956 20.3788C11.6809 24.2712 19.892 16.343 28.0937 19.8324C28.4653 19.9905 28.8779 19.7221 28.8779 19.3183V9.23364H3.12206Z" fill="url(#paint13_linear_439_8741)"/>
<path d="M3.12206 9.23364V19.8096C3.12206 20.0521 3.26044 20.2748 3.47956 20.3788C11.6809 24.2712 19.892 16.343 28.0937 19.8324C28.4653 19.9905 28.8779 19.7221 28.8779 19.3183V9.23364H3.12206Z" fill="url(#paint14_linear_439_8741)"/>
<path d="M28.5204 3.59864C25.0626 1.95783 21.603 2.41801 18.1431 3.23776V19.6631C21.4607 18.8771 24.7779 18.4216 28.0938 19.8323C28.4653 19.9904 28.8779 19.7221 28.8779 19.3183V4.16783C28.8779 3.92533 28.7395 3.70264 28.5204 3.59864Z" fill="url(#paint15_linear_439_8741)"/>
<path d="M28.5204 3.59864C25.0626 1.95783 21.603 2.41801 18.1431 3.23776V19.6631C21.4607 18.8771 24.7779 18.4216 28.0938 19.8323C28.4653 19.9904 28.8779 19.7221 28.8779 19.3183V4.16783C28.8779 3.92533 28.7395 3.70264 28.5204 3.59864Z" fill="url(#paint16_linear_439_8741)"/>
<path d="M27.0323 7.69082C26.4577 7.74776 25.8621 7.58339 25.3834 7.18395C24.6422 6.56457 24.4049 5.56526 24.7193 4.70726C24.7856 4.52557 24.6753 4.32657 24.485 4.29557C18.9036 3.38851 13.3186 6.93595 7.73719 6.14501C7.56844 6.1212 7.41706 6.24089 7.39181 6.40964C7.31244 6.9503 7.03645 7.4427 6.61669 7.79257C6.13794 8.19201 5.54237 8.35639 4.96775 8.29945C4.78894 8.28214 4.63462 8.4242 4.63462 8.60445V15.9818C4.63462 16.1621 4.78894 16.3041 4.96775 16.2868C5.54237 16.2299 6.13794 16.3943 6.61669 16.7937C7.35787 17.4131 7.59512 18.4124 7.28075 19.2704C7.21444 19.4521 7.32475 19.6511 7.51506 19.6821C13.0964 20.5891 18.6815 17.0417 24.2629 17.8326C24.4316 17.8564 24.583 17.7368 24.6082 17.568C24.6876 17.0273 24.9636 16.5349 25.3834 16.1851C25.8621 15.7856 26.4577 15.6213 27.0323 15.6782C27.2111 15.6955 27.3654 15.5534 27.3654 15.3732V7.99582C27.3654 7.81557 27.2111 7.67351 27.0323 7.69082ZM16 17.1773C13.1347 17.1773 10.8116 14.8541 10.8116 11.9888C10.8116 9.12351 13.1347 6.80039 16 6.80039C18.8653 6.80039 21.1884 9.12351 21.1884 11.9888C21.1884 14.8541 18.8653 17.1773 16 17.1773Z" fill="url(#paint17_linear_439_8741)"/>
<path d="M15.6478 12.9718C15.7035 13.0306 15.7481 13.1138 15.7481 13.2153C15.7481 13.4353 15.5865 13.6357 15.3693 13.6702C15.2356 13.6913 15.1297 13.6461 15.0629 13.5608L14.1047 12.483L13.6256 12.5588V13.5459C13.6256 13.7771 13.4418 14.0036 13.2134 14.0398C12.9738 14.0778 12.79 13.9095 12.79 13.6782V10.5817C12.79 10.311 12.985 10.0827 13.2524 10.0404L14.2718 9.8789C15.1409 9.74125 15.7035 10.2387 15.7035 10.9494C15.7035 11.457 15.4194 11.9363 14.9348 12.2218L15.6478 12.9718ZM13.6256 10.7032V11.8369L14.2273 11.7416C14.5949 11.6834 14.8902 11.5181 14.8902 11.0782C14.8902 10.6383 14.5949 10.5497 14.2273 10.6079L13.6256 10.7032Z" fill="url(#paint18_linear_439_8741)"/>
<path d="M17.8976 10.286C18.5048 10.1899 19.2402 10.5697 19.2402 11.5737C19.2402 12.6002 18.5104 13.1952 17.8976 13.2923C17.4687 13.3602 17.2069 13.1704 17.1289 13.0192V14.0796C17.1289 14.3052 16.9339 14.5222 16.7111 14.5575C16.4882 14.5928 16.3044 14.4358 16.3044 14.2102V10.9614C16.3044 10.7414 16.4994 10.5244 16.7166 10.49C16.9395 10.4547 17.1233 10.6117 17.1233 10.8317V10.8542C17.218 10.608 17.5132 10.3469 17.8976 10.286ZM17.7472 12.6111C18.087 12.5572 18.4269 12.2327 18.4269 11.7025C18.4269 11.178 18.087 10.9611 17.7472 11.0149C17.4687 11.059 17.0899 11.322 17.0899 11.9143C17.0899 12.5121 17.4687 12.6552 17.7472 12.6111Z" fill="url(#paint19_linear_439_8741)"/>
<defs>
<linearGradient id="paint0_linear_439_8741" x1="11.1718" y1="11.9412" x2="14.9753" y2="29.931" gradientUnits="userSpaceOnUse">
<stop stop-color="#D5EFC8"/>
<stop offset="1" stop-color="#68CA44"/>
</linearGradient>
<linearGradient id="paint1_linear_439_8741" x1="13.1624" y1="24.153" x2="14.0876" y2="29.2929" gradientUnits="userSpaceOnUse">
<stop stop-color="#47A920" stop-opacity="0"/>
<stop offset="0.219" stop-color="#42A725" stop-opacity="0.219"/>
<stop offset="0.484" stop-color="#33A232" stop-opacity="0.484"/>
<stop offset="0.771" stop-color="#1B9947" stop-opacity="0.771"/>
<stop offset="1" stop-color="#02905D"/>
</linearGradient>
<linearGradient id="paint2_linear_439_8741" x1="22.6052" y1="19.209" x2="26.2032" y2="19.209" gradientUnits="userSpaceOnUse">
<stop stop-color="#47A920" stop-opacity="0"/>
<stop offset="0.219" stop-color="#42A725" stop-opacity="0.219"/>
<stop offset="0.484" stop-color="#33A232" stop-opacity="0.484"/>
<stop offset="0.771" stop-color="#1B9947" stop-opacity="0.771"/>
<stop offset="1" stop-color="#02905D"/>
</linearGradient>
<linearGradient id="paint3_linear_439_8741" x1="6.27919" y1="2.18285" x2="17.4238" y2="32.293" gradientUnits="userSpaceOnUse">
<stop stop-color="#47A920" stop-opacity="0"/>
<stop offset="0.219" stop-color="#42A725" stop-opacity="0.219"/>
<stop offset="0.484" stop-color="#33A232" stop-opacity="0.484"/>
<stop offset="0.771" stop-color="#1B9947" stop-opacity="0.771"/>
<stop offset="1" stop-color="#02905D"/>
</linearGradient>
<linearGradient id="paint4_linear_439_8741" x1="16.6992" y1="28.7699" x2="16.2536" y2="24.9828" gradientUnits="userSpaceOnUse">
<stop stop-color="#47A920" stop-opacity="0"/>
<stop offset="0.219" stop-color="#42A725" stop-opacity="0.219"/>
<stop offset="0.484" stop-color="#33A232" stop-opacity="0.484"/>
<stop offset="0.771" stop-color="#1B9947" stop-opacity="0.771"/>
<stop offset="1" stop-color="#02905D"/>
</linearGradient>
<linearGradient id="paint5_linear_439_8741" x1="4.67088" y1="23.444" x2="5.22781" y2="21.0158" gradientUnits="userSpaceOnUse">
<stop stop-color="#47A920" stop-opacity="0"/>
<stop offset="0.219" stop-color="#42A725" stop-opacity="0.219"/>
<stop offset="0.484" stop-color="#33A232" stop-opacity="0.484"/>
<stop offset="0.771" stop-color="#1B9947" stop-opacity="0.771"/>
<stop offset="1" stop-color="#02905D"/>
</linearGradient>
<linearGradient id="paint6_linear_439_8741" x1="17.4159" y1="8.57199" x2="21.2194" y2="26.5617" gradientUnits="userSpaceOnUse">
<stop stop-color="#D5EFC8"/>
<stop offset="1" stop-color="#68CA44"/>
</linearGradient>
<linearGradient id="paint7_linear_439_8741" x1="19.4066" y1="20.7837" x2="20.3318" y2="25.9236" gradientUnits="userSpaceOnUse">
<stop stop-color="#47A920" stop-opacity="0"/>
<stop offset="0.219" stop-color="#42A725" stop-opacity="0.219"/>
<stop offset="0.484" stop-color="#33A232" stop-opacity="0.484"/>
<stop offset="0.771" stop-color="#1B9947" stop-opacity="0.771"/>
<stop offset="1" stop-color="#02905D"/>
</linearGradient>
<linearGradient id="paint8_linear_439_8741" x1="28.8494" y1="15.8398" x2="32.4474" y2="15.8398" gradientUnits="userSpaceOnUse">
<stop stop-color="#47A920" stop-opacity="0"/>
<stop offset="0.219" stop-color="#42A725" stop-opacity="0.219"/>
<stop offset="0.484" stop-color="#33A232" stop-opacity="0.484"/>
<stop offset="0.771" stop-color="#1B9947" stop-opacity="0.771"/>
<stop offset="1" stop-color="#02905D"/>
</linearGradient>
<linearGradient id="paint9_linear_439_8741" x1="12.5233" y1="-1.18635" x2="23.668" y2="28.9238" gradientUnits="userSpaceOnUse">
<stop stop-color="#47A920" stop-opacity="0"/>
<stop offset="0.219" stop-color="#42A725" stop-opacity="0.219"/>
<stop offset="0.484" stop-color="#33A232" stop-opacity="0.484"/>
<stop offset="0.771" stop-color="#1B9947" stop-opacity="0.771"/>
<stop offset="1" stop-color="#02905D"/>
</linearGradient>
<linearGradient id="paint10_linear_439_8741" x1="21.7273" y1="21.3206" x2="17.361" y2="13.479" gradientUnits="userSpaceOnUse">
<stop stop-color="#47A920" stop-opacity="0"/>
<stop offset="0.219" stop-color="#42A725" stop-opacity="0.219"/>
<stop offset="0.484" stop-color="#33A232" stop-opacity="0.484"/>
<stop offset="0.771" stop-color="#1B9947" stop-opacity="0.771"/>
<stop offset="1" stop-color="#02905D"/>
</linearGradient>
<linearGradient id="paint11_linear_439_8741" x1="19.4638" y1="23.3053" x2="19.642" y2="26.7806" gradientUnits="userSpaceOnUse">
<stop stop-color="white" stop-opacity="0"/>
<stop offset="1" stop-color="white"/>
</linearGradient>
<linearGradient id="paint12_linear_439_8741" x1="14.2938" y1="3.9189" x2="18.0974" y2="21.9087" gradientUnits="userSpaceOnUse">
<stop stop-color="#D5EFC8"/>
<stop offset="1" stop-color="#68CA44"/>
</linearGradient>
<linearGradient id="paint13_linear_439_8741" x1="16.2846" y1="16.1307" x2="17.2098" y2="21.2706" gradientUnits="userSpaceOnUse">
<stop stop-color="#47A920" stop-opacity="0"/>
<stop offset="0.219" stop-color="#42A725" stop-opacity="0.219"/>
<stop offset="0.484" stop-color="#33A232" stop-opacity="0.484"/>
<stop offset="0.771" stop-color="#1B9947" stop-opacity="0.771"/>
<stop offset="1" stop-color="#02905D"/>
</linearGradient>
<linearGradient id="paint14_linear_439_8741" x1="16.4689" y1="19.1098" x2="16.7066" y2="21.4266" gradientUnits="userSpaceOnUse">
<stop stop-color="white" stop-opacity="0"/>
<stop offset="1" stop-color="white"/>
</linearGradient>
<linearGradient id="paint15_linear_439_8741" x1="25.7273" y1="11.1867" x2="29.3253" y2="11.1867" gradientUnits="userSpaceOnUse">
<stop stop-color="#47A920" stop-opacity="0"/>
<stop offset="0.219" stop-color="#42A725" stop-opacity="0.219"/>
<stop offset="0.484" stop-color="#33A232" stop-opacity="0.484"/>
<stop offset="0.771" stop-color="#1B9947" stop-opacity="0.771"/>
<stop offset="1" stop-color="#02905D"/>
</linearGradient>
<linearGradient id="paint16_linear_439_8741" x1="27.8504" y1="11.4126" x2="29.6921" y2="11.5017" gradientUnits="userSpaceOnUse">
<stop stop-color="white" stop-opacity="0"/>
<stop offset="1" stop-color="white"/>
</linearGradient>
<linearGradient id="paint17_linear_439_8741" x1="9.40125" y1="-5.83943" x2="20.5459" y2="24.2708" gradientUnits="userSpaceOnUse">
<stop stop-color="#47A920" stop-opacity="0"/>
<stop offset="0.219" stop-color="#42A725" stop-opacity="0.219"/>
<stop offset="0.484" stop-color="#33A232" stop-opacity="0.484"/>
<stop offset="0.771" stop-color="#1B9947" stop-opacity="0.771"/>
<stop offset="1" stop-color="#02905D"/>
</linearGradient>
<linearGradient id="paint18_linear_439_8741" x1="2.94407" y1="3.32182" x2="11.1388" y2="25.0265" gradientUnits="userSpaceOnUse">
<stop stop-color="#47A920" stop-opacity="0"/>
<stop offset="0.219" stop-color="#42A725" stop-opacity="0.219"/>
<stop offset="0.484" stop-color="#33A232" stop-opacity="0.484"/>
<stop offset="0.771" stop-color="#1B9947" stop-opacity="0.771"/>
<stop offset="1" stop-color="#02905D"/>
</linearGradient>
<linearGradient id="paint19_linear_439_8741" x1="2.94407" y1="3.32182" x2="11.1388" y2="25.0265" gradientUnits="userSpaceOnUse">
<stop stop-color="#47A920" stop-opacity="0"/>
<stop offset="0.219" stop-color="#42A725" stop-opacity="0.219"/>
<stop offset="0.484" stop-color="#33A232" stop-opacity="0.484"/>
<stop offset="0.771" stop-color="#1B9947" stop-opacity="0.771"/>
<stop offset="1" stop-color="#02905D"/>
</linearGradient>
</defs>
</svg>
