<svg width="131" height="115" viewBox="0 0 131 115" fill="none" xmlns="http://www.w3.org/2000/svg">
<path d="M76.7614 114.453V75.3824C76.7614 55.1579 81.3579 38.6105 90.5509 25.7403C99.7439 12.5637 113.227 3.98363 131 0V20.6842C121.194 23.1357 113.993 27.7322 109.396 34.4737C104.8 40.9088 101.889 49.1825 100.663 59.2947H121.807V114.453H76.7614ZM0 114.453V75.3824C0 55.1579 4.44327 38.6105 13.3298 25.7403C22.5228 12.5637 36.0058 3.98363 53.7789 0V20.6842C44.2795 23.1357 37.0784 27.7322 32.1754 34.4737C27.5789 40.9088 24.821 49.1825 23.9017 59.2947H44.586V114.453H0Z" fill="#F0F6FE"/>
</svg>
