<svg width="32" height="32" viewBox="0 0 32 32" fill="none" xmlns="http://www.w3.org/2000/svg">
<path d="M6.64473 8.09034L3.98616 11.0423L1.30247 13.4325L0.559389 12.6895C0.317167 12.4472 0.317167 12.0545 0.559389 11.8123L5.02445 7.34719C5.26667 7.10497 5.65943 7.10497 5.90165 7.34719L6.64473 8.09034Z" fill="url(#paint0_linear_439_8830)"/>
<path d="M32 21.4136V22.7213C32 23.0142 31.7631 23.2512 31.4701 23.2512H2.68362C2.27992 23.2512 1.89103 23.1024 1.59034 22.834L0.598793 21.948C0.430864 21.7971 0.293013 21.6158 0.192515 21.4136L16.5768 20.9899L32 21.4136Z" fill="url(#paint1_linear_439_8830)"/>
<path d="M32 21.4136V22.7215C32 22.862 31.9442 22.9967 31.8449 23.0961C31.7455 23.1954 31.6108 23.2512 31.4703 23.2512H30.4762C30.5713 23.1933 30.6499 23.1119 30.7044 23.0148C30.759 22.9177 30.7876 22.8082 30.7876 22.6968V21.4136L31.3938 21.2649L32 21.4136Z" fill="#593D04"/>
<path d="M32 21.4135H21.8832L21.4406 15.3975L21.8832 10.0498H28.3611C28.6786 10.0498 28.9725 10.2171 29.1347 10.4899L31.7636 14.9143C31.9183 15.1747 32 15.4721 32 15.775V21.4135Z" fill="url(#paint2_linear_439_8830)"/>
<path d="M32 15.7752V21.4136H30.7876V15.7752C30.7876 15.4722 30.7059 15.1749 30.5511 14.9144L27.9326 10.508C27.8035 10.2909 27.5999 10.1281 27.3597 10.05H28.3614C28.6788 10.05 28.9728 10.2173 29.1349 10.4901L31.7636 14.9144C31.9183 15.1748 32 15.4722 32 15.7752Z" fill="url(#paint3_linear_439_8830)"/>
<path d="M21.883 7.39028V21.4136H7.97244L6.64467 14.0881C6.64467 14.0881 7.74567 7.05418 7.97231 6.95116C8.24274 6.82819 8.53891 6.76251 8.84153 6.76251H21.2552C21.6016 6.76251 21.883 7.04388 21.883 7.39028Z" fill="url(#paint4_linear_439_8830)"/>
<path d="M7.97231 6.95117V21.4136H0.192515C0.0658096 21.1615 -0.000120898 20.8832 1.66425e-07 20.6011V15.3504C1.66425e-07 14.9563 0.156459 14.5784 0.435252 14.2996L7.35742 7.37741C7.53516 7.1996 7.74344 7.05522 7.97231 6.95117Z" fill="url(#paint5_linear_439_8830)"/>
<path d="M7.97231 6.95117V21.4136H6.64467V8.09017L7.35743 7.37741C7.53516 7.1996 7.74344 7.05522 7.97231 6.95117Z" fill="url(#paint6_linear_439_8830)"/>
<path d="M21.883 7.39047V21.4136H20.2933V6.76251H21.255C21.6018 6.76251 21.883 7.04369 21.883 7.39047Z" fill="url(#paint7_linear_439_8830)"/>
<path d="M29.6293 15.3974H24.5479C24.2073 15.3974 23.9311 15.1211 23.9311 14.7805V12.7614C23.9311 12.4208 24.2073 12.1439 24.5479 12.1439H27.4511C27.6031 12.1439 27.7466 12.1993 27.8574 12.2972C27.9082 12.3423 27.9517 12.3951 27.9862 12.4536L29.4979 15.0812L29.5198 15.1205C29.5662 15.2087 29.6035 15.3014 29.6293 15.3974Z" fill="#8AC9FE"/>
<path d="M29.6293 15.3974H28.2952L26.5427 12.3892C26.476 12.2746 26.3706 12.1877 26.2455 12.1439H27.4512C27.6031 12.1439 27.7467 12.1993 27.8574 12.2972C27.9085 12.3419 27.9518 12.3947 27.9856 12.4536L29.498 15.0812L29.5199 15.1205C29.5665 15.2085 29.6031 15.3013 29.6293 15.3974Z" fill="#60B7FF"/>
<path d="M25.5544 25.2374C26.6514 25.2374 27.5406 24.3481 27.5406 23.2512C27.5406 22.1543 26.6514 21.265 25.5544 21.265C24.4575 21.265 23.5682 22.1543 23.5682 23.2512C23.5682 24.3481 24.4575 25.2374 25.5544 25.2374Z" fill="#051455"/>
<path d="M27.5406 23.2512C27.5406 24.3484 26.6514 25.2375 25.5543 25.2375C25.3392 25.2375 25.1319 25.2034 24.9381 25.1397C25.7339 24.8808 26.3083 24.1333 26.3083 23.2512C26.3083 22.3691 25.7339 21.6216 24.9381 21.3628C25.137 21.2976 25.345 21.2646 25.5543 21.2649C26.6514 21.2649 27.5406 22.1541 27.5406 23.2512Z" fill="url(#paint8_linear_439_8830)"/>
<path d="M14.0922 25.2374C15.1892 25.2374 16.0784 24.3481 16.0784 23.2512C16.0784 22.1543 15.1892 21.265 14.0922 21.265C12.9953 21.265 12.106 22.1543 12.106 23.2512C12.106 24.3481 12.9953 25.2374 14.0922 25.2374Z" fill="#051455"/>
<path d="M16.0786 23.2512C16.0786 24.3484 15.1894 25.2375 14.0922 25.2375C13.8772 25.2375 13.6699 25.2034 13.4761 25.1397C14.2719 24.8808 14.8462 24.1333 14.8462 23.2512C14.8462 22.3691 14.2719 21.6216 13.4761 21.3628C13.6749 21.2976 13.8829 21.2646 14.0922 21.2649C15.1894 21.2649 16.0786 22.1541 16.0786 23.2512Z" fill="url(#paint9_linear_439_8830)"/>
<path d="M7.97244 25.2374C9.06938 25.2374 9.95863 24.3481 9.95863 23.2512C9.95863 22.1543 9.06938 21.265 7.97244 21.265C6.8755 21.265 5.98625 22.1543 5.98625 23.2512C5.98625 24.3481 6.8755 25.2374 7.97244 25.2374Z" fill="#051455"/>
<path d="M9.95863 23.2512C9.95863 24.3484 9.06946 25.2375 7.97231 25.2375C7.75726 25.2375 7.54994 25.2034 7.35614 25.1397C8.15131 24.8808 8.72628 24.1333 8.72628 23.2512C8.72628 22.3691 8.15131 21.6216 7.35614 21.3628C7.55502 21.2976 7.76303 21.2646 7.97231 21.2649C9.06946 21.2649 9.95863 22.1541 9.95863 23.2512Z" fill="url(#paint10_linear_439_8830)"/>
<path d="M19.4201 16.4499C19.3574 16.339 19.2534 16.2573 19.1307 16.2227C19.0081 16.1881 18.8767 16.2034 18.7653 16.2652C18.6539 16.3271 18.5714 16.4305 18.5359 16.5528C18.5004 16.6752 18.5146 16.8067 18.5756 16.9186C18.618 16.995 18.5924 17.0605 18.5735 17.0928C18.5545 17.1251 18.5096 17.1792 18.4223 17.1792H15.2372L15.6696 16.7468C15.7144 16.702 15.75 16.6487 15.7743 16.5902C15.7985 16.5316 15.811 16.4688 15.811 16.4054C15.811 16.3419 15.7985 16.2791 15.7742 16.2206C15.7499 16.162 15.7144 16.1088 15.6695 16.0639C15.5789 15.9734 15.4561 15.9225 15.3281 15.9225C15.2 15.9226 15.0772 15.9734 14.9866 16.064L13.7299 17.3207C13.5448 17.5059 13.5448 17.8185 13.7299 18.0036L14.9866 19.2603C15.0809 19.3546 15.2046 19.4017 15.3281 19.4017C15.4517 19.4017 15.5753 19.3546 15.6696 19.2603C15.7145 19.2155 15.7501 19.1622 15.7743 19.1037C15.7986 19.0451 15.8111 18.9823 15.8111 18.9188C15.8111 18.8554 15.7986 18.7926 15.7743 18.734C15.7501 18.6755 15.7145 18.6222 15.6696 18.5774L15.2373 18.1451H18.4223C18.8309 18.1451 19.1986 17.9349 19.4058 17.5828C19.613 17.2307 19.6184 16.8071 19.4201 16.4499ZM14.1179 10.8108C14.1734 10.8416 14.2343 10.8611 14.2973 10.8683C14.3603 10.8755 14.4241 10.8703 14.4851 10.8528C14.5461 10.8354 14.603 10.8061 14.6527 10.7666C14.7023 10.7272 14.7437 10.6783 14.7745 10.6229C14.8181 10.5443 14.8893 10.5326 14.9278 10.5326C14.9665 10.5326 15.0377 10.5444 15.0813 10.6229L16.9445 13.9797L16.3275 13.8145C16.2663 13.798 16.2024 13.7938 16.1395 13.8021C16.0766 13.8104 16.016 13.8309 15.9611 13.8626C15.9061 13.8943 15.858 13.9366 15.8194 13.9869C15.7808 14.0372 15.7525 14.0946 15.7361 14.1559C15.7197 14.2172 15.7155 14.281 15.7237 14.3439C15.732 14.4068 15.7526 14.4674 15.7843 14.5223C15.816 14.5773 15.8582 14.6254 15.9085 14.664C15.9588 14.7026 16.0163 14.7309 16.0775 14.7474L17.7941 15.2073C18.0464 15.2749 18.3176 15.1198 18.3856 14.8659L18.8456 13.1492C18.862 13.088 18.8662 13.0241 18.8579 12.9612C18.8496 12.8983 18.829 12.8377 18.7973 12.7828C18.7656 12.7279 18.7234 12.6797 18.6731 12.6411C18.6228 12.6025 18.5654 12.5742 18.5041 12.5578C18.4429 12.5413 18.379 12.5371 18.3161 12.5454C18.2532 12.5537 18.1926 12.5743 18.1377 12.606C18.0827 12.6377 18.0346 12.6799 17.996 12.7302C17.9574 12.7805 17.9291 12.838 17.9127 12.8992L17.7617 13.4623L15.9256 10.1542C15.7245 9.79193 15.3421 9.56683 14.9277 9.56683C14.5133 9.56683 14.131 9.79193 13.9299 10.1542C13.8991 10.2097 13.8796 10.2707 13.8724 10.3337C13.8652 10.3967 13.8705 10.4605 13.8879 10.5214C13.9054 10.5824 13.9347 10.6393 13.9742 10.689C14.0136 10.7386 14.0625 10.78 14.1179 10.8108ZM13.942 14.3885L13.482 12.6718C13.4139 12.4182 13.1445 12.2622 12.8905 12.3304L11.1738 12.7903C11.1125 12.8067 11.0551 12.8351 11.0048 12.8737C10.9545 12.9123 10.9123 12.9604 10.8806 13.0153C10.8489 13.0703 10.8283 13.1309 10.82 13.1938C10.8117 13.2566 10.8159 13.3205 10.8324 13.3818C10.8487 13.4431 10.877 13.5005 10.9156 13.5508C10.9542 13.6012 11.0024 13.6434 11.0573 13.6751C11.1122 13.7068 11.1729 13.7274 11.2358 13.7357C11.2987 13.7439 11.3626 13.7397 11.4238 13.7232L12.0408 13.5579L10.4355 16.4501C10.2373 16.8073 10.2426 17.2308 10.45 17.5829C10.6572 17.935 11.0249 18.1452 11.4334 18.1452C11.7002 18.1452 11.9163 17.929 11.9163 17.6623C11.9163 17.3955 11.7002 17.1794 11.4334 17.1794C11.3462 17.1794 11.3012 17.1252 11.2822 17.0929C11.2632 17.0606 11.2376 16.995 11.28 16.9187L12.8582 14.0754L13.0091 14.6385C13.0366 14.7412 13.0972 14.8319 13.1814 14.8966C13.2657 14.9613 13.369 14.9965 13.4752 14.9966C13.5493 14.9966 13.6225 14.9796 13.6889 14.9468C13.7554 14.9141 13.8135 14.8665 13.8586 14.8077C13.9037 14.7489 13.9347 14.6805 13.9492 14.6078C13.9636 14.5351 13.9612 14.4601 13.942 14.3885Z" fill="white"/>
<path d="M25.5544 23.7341C25.8211 23.7341 26.0373 23.5179 26.0373 23.2512C26.0373 22.9845 25.8211 22.7683 25.5544 22.7683C25.2877 22.7683 25.0715 22.9845 25.0715 23.2512C25.0715 23.5179 25.2877 23.7341 25.5544 23.7341Z" fill="#8AC9FE"/>
<path d="M14.0922 23.7341C14.3589 23.7341 14.5751 23.5179 14.5751 23.2512C14.5751 22.9845 14.3589 22.7683 14.0922 22.7683C13.8255 22.7683 13.6093 22.9845 13.6093 23.2512C13.6093 23.5179 13.8255 23.7341 14.0922 23.7341Z" fill="#8AC9FE"/>
<path d="M7.97244 23.7341C8.23914 23.7341 8.45534 23.5179 8.45534 23.2512C8.45534 22.9845 8.23914 22.7683 7.97244 22.7683C7.70574 22.7683 7.48954 22.9845 7.48954 23.2512C7.48954 23.5179 7.70574 23.7341 7.97244 23.7341Z" fill="#8AC9FE"/>
<defs>
<linearGradient id="paint0_linear_439_8830" x1="3.51123" y1="7.16553" x2="3.51123" y2="13.4325" gradientUnits="userSpaceOnUse">
<stop stop-color="#FDD37E"/>
<stop offset="1" stop-color="#E29A0E"/>
</linearGradient>
<linearGradient id="paint1_linear_439_8830" x1="16.0963" y1="20.9899" x2="16.0963" y2="23.2512" gradientUnits="userSpaceOnUse">
<stop stop-color="#795100"/>
<stop offset="1" stop-color="#664609"/>
</linearGradient>
<linearGradient id="paint2_linear_439_8830" x1="26.7203" y1="10.0498" x2="26.7203" y2="21.4135" gradientUnits="userSpaceOnUse">
<stop stop-color="#D9E7EC"/>
<stop offset="1" stop-color="white"/>
</linearGradient>
<linearGradient id="paint3_linear_439_8830" x1="29.6798" y1="10.05" x2="29.6798" y2="21.4136" gradientUnits="userSpaceOnUse">
<stop stop-color="#C5D3DD"/>
<stop offset="1" stop-color="#C5D3DD" stop-opacity="0"/>
</linearGradient>
<linearGradient id="paint4_linear_439_8830" x1="13.2544" y1="7.86113" x2="16.9706" y2="21.3382" gradientUnits="userSpaceOnUse">
<stop stop-color="#FFE6B5"/>
<stop offset="1" stop-color="#FFA800"/>
</linearGradient>
<linearGradient id="paint5_linear_439_8830" x1="3.45804" y1="8.03565" x2="9.31925" y2="19.3013" gradientUnits="userSpaceOnUse">
<stop stop-color="#FFE6B5"/>
<stop offset="1" stop-color="#FFA800"/>
</linearGradient>
<linearGradient id="paint6_linear_439_8830" x1="7.30849" y1="6.95117" x2="7.30849" y2="21.4136" gradientUnits="userSpaceOnUse">
<stop stop-color="#FDD37E"/>
<stop offset="1" stop-color="#FFAF13" stop-opacity="0"/>
</linearGradient>
<linearGradient id="paint7_linear_439_8830" x1="21.0881" y1="6.76251" x2="21.0881" y2="21.4136" gradientUnits="userSpaceOnUse">
<stop stop-color="#FDD37E"/>
<stop offset="1" stop-color="#FFAF13" stop-opacity="0"/>
</linearGradient>
<linearGradient id="paint8_linear_439_8830" x1="26.2394" y1="21.2649" x2="26.2394" y2="25.2375" gradientUnits="userSpaceOnUse">
<stop stop-color="#5566B1"/>
<stop offset="1" stop-color="#030B2D" stop-opacity="0"/>
</linearGradient>
<linearGradient id="paint9_linear_439_8830" x1="14.7773" y1="21.2649" x2="14.7773" y2="25.2375" gradientUnits="userSpaceOnUse">
<stop stop-color="#5566B1"/>
<stop offset="1" stop-color="#030B2D" stop-opacity="0"/>
</linearGradient>
<linearGradient id="paint10_linear_439_8830" x1="8.65738" y1="21.2649" x2="8.65738" y2="25.2375" gradientUnits="userSpaceOnUse">
<stop stop-color="#5566B1"/>
<stop offset="1" stop-color="#030B2D" stop-opacity="0"/>
</linearGradient>
</defs>
</svg>
